<svg xmlns="http://www.w3.org/2000/svg" viewBox="0 0 48 60" x="0px" y="0px"><defs><style>.cls-1{fill:none;}</style></defs><title>Info</title><g data-name="Bouding Box"><rect class="cls-1" width="48" height="48"/></g><g><path d="M24,4A20,20,0,1,0,44,24,20,20,0,0,0,24,4Zm0,37A17,17,0,1,1,41,24,17,17,0,0,1,24,41Z"/><path d="M24,23a2,2,0,0,0-2,2v7a2,2,0,0,0,4,0V25A2,2,0,0,0,24,23Z"/><path d="M24,14a3,3,0,1,0,3,3A3,3,0,0,0,24,14Z"/></g><text x="0" y="63" fill="#000000" font-size="5px" font-weight="bold" font-family="'Helvetica Neue', Helvetica, Arial-Unicode, Arial, Sans-serif">Created by Division Icons</text><text x="0" y="68" fill="#000000" font-size="5px" font-weight="bold" font-family="'Helvetica Neue', Helvetica, Arial-Unicode, Arial, Sans-serif">from the Noun Project</text></svg>