<svg xmlns="http://www.w3.org/2000/svg" version="1.1" viewBox="-5.0 -10.0 110.0 135.0">
 <g>
  <path d="m9.375 60.492c-1.7266 0-3.125 1.3984-3.125 3.125 0 1.7266 1.3984 3.125 3.125 3.125h0.89844v16.156c0 1.7266 1.3984 3.125 3.125 3.125h22.336c1.7266 0 3.125-1.3984 3.125-3.125 0-0.97266-0.46875-1.8047-1.1641-2.3789-0.53906-0.44531-1.207-0.74609-1.9609-0.74609h-19.211v-65.359h46.562c4.3516 0 7.8906 3.5391 7.8906 7.8906v14.125c0 0.97266 0.46875 1.8047 1.1641 2.3789 0.53906 0.44531 1.207 0.74609 1.9609 0.74609 1.7266 0 3.125-1.3984 3.125-3.125v-14.125c0-7.7969-6.3438-14.141-14.141-14.141h-49.688c-1.7266 0-3.125 1.3984-3.125 3.125v16.152h-0.89844c-1.7266 0-3.125 1.3984-3.125 3.125 0 1.7266 1.3984 3.125 3.125 3.125h0.89844v10.273h-0.89844c-1.7266 0-3.125 1.3984-3.125 3.125 0 1.7266 1.3984 3.125 3.125 3.125h0.89844v10.273z"/>
  <path d="m53.898 58.316c0 0.78516 0.11328 1.543 0.23437 2.2969 0.37109 2.3359 1.2773 4.4805 2.6172 6.3164-5.2656 0.81641-9.7227 4.6406-11.211 9.8711l-1.8477 6.5117c-0.57812 2.0352-0.17578 4.1719 1.0977 5.8633 1.2773 1.6875 3.2227 2.6562 5.3359 2.6562h36.93c2.1172 0 4.0664-0.96875 5.3398-2.6562 1.2773-1.6914 1.6797-3.8281 1.0977-5.8633l-1.8516-6.5117c-1.4844-5.2344-5.9414-9.0586-11.207-9.8711 1.7695-2.4258 2.8477-5.3867 2.8477-8.6172 0-8.0977-6.5938-14.691-14.691-14.691-0.16016 0-0.30859 0.042968-0.46875 0.046875-7.8789 0.25781-14.223 6.7109-14.223 14.648zm23.133 0c0 4.6523-3.7891 8.4414-8.4414 8.4414s-8.4414-3.7891-8.4414-8.4414 3.7891-8.4414 8.4414-8.4414c4.6562 0 8.4414 3.7891 8.4414 8.4414zm10.379 27.094c-0.089844 0.11719-0.20703 0.17578-0.35547 0.17578h-36.93c-0.14844 0-0.26172-0.058594-0.35156-0.17578-0.089844-0.11719-0.11328-0.24219-0.074219-0.38281l1.8477-6.5117c0.92188-3.2422 3.9219-5.5039 7.2891-5.5039h19.5c3.3711 0 6.3672 2.2656 7.2891 5.5039l1.8516 6.5117c0.042969 0.13672 0.019532 0.26562-0.066406 0.38281z"/>
  <path d="m56.246 26.914h-25c-1.7266 0-3.125 1.3984-3.125 3.125 0 1.7266 1.3984 3.125 3.125 3.125h25c1.7266 0 3.125-1.3984 3.125-3.125 0-1.7266-1.3984-3.125-3.125-3.125z"/>
 </g>
<text x="0.0" y="117.5" font-size="5.0" font-weight="bold" font-family="Arbeit Regular, Helvetica, Arial-Unicode, Arial, Sans-serif" fill="#000000">Created by Riyan Resdian</text><text x="0.0" y="122.5" font-size="5.0" font-weight="bold" font-family="Arbeit Regular, Helvetica, Arial-Unicode, Arial, Sans-serif" fill="#000000">from Noun Project</text></svg>