<svg xmlns="http://www.w3.org/2000/svg" version="1.1" viewBox="-5.0 -10.0 110.0 135.0">
 <g>
  <path d="m7.2383 57.02c1.3984 10.238 7.2188 19.719 15.621 25.68 4.1797 3 8.9883 5.1406 14.031 6.2305 5.0391 1.0781 10.289 1.1484 15.352 0.14844 0.80859-0.16016 1.8203-0.32812 2.6602-0.51953 0.83984-0.17969 1.6797-0.39062 2.4102-0.69141 1.4492-0.60156 2.4297-1.5508 2.0586-3.3516-0.39844-1.9492-1.6797-2.3594-3.2188-2.1914-1.5391 0.14844-3.3516 0.94141-4.6602 1.1797-8.4414 1.6094-17.441-0.19141-24.539-4.9688-7.1406-4.7383-12.27-12.422-13.801-20.852-1.6094-8.4219 0.39844-17.469 5.4883-24.25 5-6.8398 12.93-11.289 21.039-11.93 3.5-0.30078 9.9805 0.058594 9.5703-4.9883-0.14062-2.0508-1.6602-2.8984-3.6406-3.2109-1.8711-0.33984-4.6719-0.058594-6.8281 0.28125-9.8984 1.4805-19.02 7.2305-24.75 15.328-5.8281 8.0781-8.1914 18.379-6.7891 28.109z"/>
  <path d="m60.172 32.059c0.71875 3.7891 2.2617 7.5508 5.0195 10.621 1.3711 1.5195 3.0312 2.8594 4.9609 3.8203 1.3516 0.67969 2.8516 1.1406 4.3711 1.3711-0.41016 13.398 0.83984 26.809-1.7891 40.199-0.32031 1.6211-0.69922 3.9805 4.3008 3.9219 4.1016-0.039063 3.6406-2.2695 3.6602-3.7695 0.078126-6.8086-0.48828-13.629-0.48828-20.441 0-6.8086 0.011719-13.48-0.011719-20.219 0.98047-0.25 1.9414-0.58984 2.8398-1.0391 2.0195-1 3.7305-2.4297 5.1094-4.0391 2.7812-3.25 4.2617-7.2109 4.7891-11.148 0.51172-3.9414 0.17969-7.9805-1.2383-11.809-1.3789-3.8008-3.9219-7.4609-7.8086-9.7188-0.60938-0.39844-1.3711-0.76172-2.1211-1.1289-0.78906-0.28906-1.6016-0.58984-2.3711-0.60156-0.76172-0.058594-1.4492 0.10156-1.9492 0.51172-0.48828 0.39844-0.76953 1.0117-0.80859 1.9297-0.039063 2.0117 0.67969 2.6914 1.5 3.0781 0.83984 0.32031 1.9609 0.51953 2.7383 0.94922 2.3984 1.3789 4.1797 3.8398 5.25 6.5703 1.0703 2.7383 1.4297 5.8281 1.1406 8.8203-0.28906 2.9805-1.2695 5.8984-3 8.1992-1.7109 2.3008-4.1719 3.8984-6.8281 4.1211-2.6797 0.28125-5.3516-0.83984-7.2617-2.8906-1.9219-2.0312-3.1797-4.8086-3.5898-7.7109-0.23828-1.4414-0.26953-2.9297-0.12891-4.3906 0.10938-1.4609 0.44141-2.8906 0.92969-4.2109 0.92969-2.6719 2.6992-4.9297 4.7188-6.1211 0.96094-0.57812 2.0508-0.92188 2.8711-1.6211 0.78906-0.69922 1.6406-1.8203 1.6484-4.3516 0.011719-2.0117-1.4102-3.0117-3.4414-2.9414-2.0117 0.058594-4.2383 1.2891-5.7188 2.4492-3.4883 2.6211-5.6094 6.3281-6.7188 10.09-1.1094 3.8008-1.2305 7.6992-0.57812 11.512z"/>
 </g>
<text x="0.0" y="117.5" font-size="5.0" font-weight="bold" font-family="Arbeit Regular, Helvetica, Arial-Unicode, Arial, Sans-serif" fill="#000000">Created by Gregor Cresnar</text><text x="0.0" y="122.5" font-size="5.0" font-weight="bold" font-family="Arbeit Regular, Helvetica, Arial-Unicode, Arial, Sans-serif" fill="#000000">from Noun Project</text></svg>