<svg xmlns="http://www.w3.org/2000/svg" xmlns:xlink="http://www.w3.org/1999/xlink" version="1.1" x="0px" y="0px" viewBox="0 0 100 125" enable-background="new 0 0 100 100" xml:space="preserve"><path d="M45.94,44.063c-0.01,0.119-0.017,0.239-0.017,0.361c0,0.587,0.125,1.145,0.345,1.651l-2.758,1.377  c-0.329,0.164-0.463,0.565-0.299,0.894c0.117,0.234,0.352,0.369,0.597,0.369c0.1,0,0.202-0.023,0.297-0.07l2.89-1.442  c0.568,0.63,1.323,1.087,2.18,1.278c-0.088,0.123-0.24,0.322-0.455,0.559c-0.355,0.39-0.881,0.879-1.574,1.289  c-0.51,0.302-1.108,0.562-1.796,0.707c-1.889,0.399-3.984-0.134-6.236-1.584c0.014-0.046,0.029-0.096,0.046-0.148  c0.103-0.322,0.265-0.755,0.508-1.235C40.503,46.417,42.296,44.215,45.94,44.063z M52.744,44.423c0-0.125-0.011-0.248-0.027-0.369  c-0.064-0.489-0.254-0.938-0.536-1.316c-0.5-0.67-1.289-1.109-2.181-1.134c-0.892,0.025-1.681,0.464-2.181,1.134  c-0.282,0.378-0.472,0.827-0.536,1.316c-0.016,0.121-0.027,0.243-0.027,0.369c0,1.53,1.224,2.777,2.744,2.819  C51.52,47.2,52.744,45.953,52.744,44.423z M52.854,50.327c0.51,0.302,1.108,0.562,1.796,0.707c1.889,0.399,3.984-0.134,6.236-1.584  c-0.014-0.046-0.029-0.096-0.046-0.148c-0.103-0.322-0.265-0.755-0.508-1.235c-0.835-1.65-2.628-3.852-6.272-4.005  c0.01,0.119,0.017,0.239,0.017,0.361c0,0.587-0.125,1.145-0.345,1.651l2.758,1.377c0.329,0.164,0.463,0.565,0.299,0.894  c-0.117,0.234-0.352,0.369-0.597,0.369c-0.1,0-0.202-0.023-0.297-0.07l-2.89-1.442c-0.568,0.63-1.323,1.087-2.18,1.278  c0.088,0.123,0.24,0.322,0.455,0.559C51.635,49.428,52.161,49.916,52.854,50.327z M59.609,43.134  c-0.686,0.159-1.366,0.292-2.041,0.408c2.188,1.033,3.415,2.837,4.068,4.211c0.777-0.2,1.548-0.42,2.309-0.665  c0.448-0.145,0.893-0.298,1.336-0.459c2.287-0.829,4.495-1.87,6.615-3.119c-0.809-1.413-1.565-2.852-2.186-4.433  c-2.808,1.67-5.643,2.838-8.42,3.624C60.727,42.861,60.166,43.006,59.609,43.134z M78.251,59.527  c-0.69-6.444-3.013-10.361-5.272-14.168c-0.138-0.233-0.276-0.465-0.413-0.697c-2.151,1.267-4.315,2.283-6.463,3.082  c2.82,4.055,4.509,9.196,4.509,14.784c0,0.378-0.009,0.753-0.024,1.127C74.683,61.849,77.441,60.072,78.251,59.527z M33.897,47.744  c-2.148-0.799-4.312-1.814-6.463-3.082c-0.137,0.232-0.275,0.464-0.413,0.697c-2.259,3.807-4.583,7.723-5.272,14.168  c0.81,0.546,3.568,2.323,7.663,4.128c-0.015-0.374-0.024-0.749-0.024-1.127C29.388,56.94,31.077,51.799,33.897,47.744z   M36.055,47.089c0.761,0.246,1.532,0.465,2.309,0.665c0.654-1.375,1.88-3.178,4.068-4.211c-0.675-0.116-1.355-0.25-2.041-0.408  c-0.557-0.129-1.118-0.273-1.681-0.433c-2.777-0.786-5.611-1.954-8.42-3.624c-0.621,1.581-1.377,3.02-2.186,4.433  c2.119,1.249,4.328,2.29,6.615,3.119C35.162,46.791,35.607,46.944,36.055,47.089z M62.13,48.992c0.121,0.374,0.17,0.61,0.173,0.622  l0.085,0.431l-0.362,0.248c-2.139,1.465-4.194,2.203-6.127,2.203c-0.524,0-1.039-0.054-1.545-0.163  c-1.652-0.354-2.867-1.223-3.656-1.979c-0.267-0.256-0.484-0.498-0.654-0.704c-0.006,0.007-0.082,0.007-0.087,0  c-0.17,0.206-0.387,0.448-0.654,0.704c-0.789,0.756-2.004,1.624-3.656,1.979c-0.506,0.109-1.021,0.163-1.545,0.163  c-1.934,0-3.988-0.737-6.127-2.203l-0.362-0.248l0.085-0.431c0.002-0.012,0.052-0.248,0.173-0.622  c-0.885-0.229-1.776-0.492-2.671-0.79c-2.795,3.882-4.479,8.879-4.479,14.325c0,0.575,0.019,1.144,0.056,1.708  c4.995,2.052,11.649,3.973,19.054,3.973c0.048,0,0.096-0.001,0.144-0.002v-0.001c0.009,0,0.017,0,0.026,0c0.009,0,0.017,0,0.026,0  v0.001c0.048,0.001,0.095,0.002,0.144,0.002c7.406,0,14.059-1.921,19.054-3.973c0.037-0.564,0.056-1.134,0.056-1.708  c0-5.446-1.685-10.443-4.479-14.325C63.906,48.501,63.015,48.763,62.13,48.992z M40.155,41.704  c-3.089-0.766-6.267-2.006-9.405-3.904c0.695-2.131,1.132-4.547,1.132-7.498c0-10.154,2.589-17.407,7.696-21.558  c3.993-3.246,8.373-3.596,10.071-3.596c0.11,0,0.207,0.001,0.29,0.004l0.018,0.001l0.018-0.001c0.008,0,0.017,0,0.025-0.001  c0.009,0,0.018,0,0.026,0.001l0.018,0.001l0.018-0.001c0.083-0.002,0.18-0.004,0.29-0.004c1.698,0,6.078,0.35,10.071,3.596  c5.106,4.15,7.696,11.404,7.696,21.558c0,2.95,0.437,5.366,1.132,7.498c-3.138,1.898-6.316,3.138-9.405,3.904  c-0.649,0.161-1.294,0.302-1.934,0.423c-1.439,0.271-2.852,0.444-4.225,0.539c-0.649-1.385-2.041-2.353-3.66-2.394v-0.003  c-0.009,0-0.017,0.001-0.026,0.001c-0.009,0-0.017-0.001-0.026-0.001v0.003c-1.619,0.041-3.011,1.009-3.66,2.394  c-1.374-0.095-2.786-0.268-4.225-0.539C41.449,42.006,40.804,41.865,40.155,41.704z M36.878,23.16  c0,7.247,5.875,13.122,13.122,13.122c7.247,0,13.122-5.875,13.122-13.122c0-7.247-5.875-13.122-13.122-13.122  C42.753,10.037,36.878,15.912,36.878,23.16z M78.436,63.538c-1.387,0.888-4.439,2.706-8.642,4.439  C67.302,77.83,59.391,85.05,50.044,85.05c-0.015,0-0.029-0.001-0.044-0.001c-0.014,0-0.029,0.001-0.043,0.001  c-9.348,0-17.258-7.22-19.751-17.072c-4.203-1.733-7.255-3.551-8.642-4.439c0.225,7.083,2.497,16.597,8.756,23.274  c0.812,0.866,1.692,1.684,2.642,2.443c4.103,3.277,9.533,5.45,16.636,5.591l0.304,0.006l0.061-0.001L50,94.852l0.038-0.001  l0.061,0.001l0.304-0.006c7.103-0.14,12.533-2.314,16.636-5.591c0.95-0.759,1.83-1.577,2.642-2.443  C75.94,80.135,78.212,70.621,78.436,63.538z M49.351,12.15c-0.005-0.033-0.009-0.064-0.013-0.096  c-4.09,0.207-7.648,2.459-9.674,5.75c3.75-0.14,6.494-1.076,8.159-2.793C48.841,13.963,49.214,12.859,49.351,12.15z M60.336,17.804  c-2.026-3.291-5.585-5.543-9.674-5.75c-0.004,0.032-0.008,0.062-0.013,0.096c0.137,0.709,0.511,1.813,1.528,2.862  C53.843,16.728,56.586,17.664,60.336,17.804z M51.683,23.802c-0.275,0.244-0.3,0.666-0.056,0.941  c0.132,0.148,0.315,0.224,0.498,0.224c0.157,0,0.315-0.055,0.442-0.168c2.293-2.037,4.359-0.229,4.59-0.014  c0.267,0.252,0.687,0.241,0.94-0.025c0.254-0.266,0.243-0.688-0.023-0.942C57.004,22.799,54.291,21.485,51.683,23.802z   M50.087,31.073c0.883,0,1.858-0.265,2.817-1.005c0.291-0.225,0.345-0.643,0.12-0.935c-0.225-0.291-0.643-0.345-0.935-0.12  c-0.742,0.572-1.464,0.743-2.09,0.725c-0.626,0.018-1.348-0.153-2.09-0.725c-0.291-0.225-0.71-0.171-0.935,0.12  c-0.225,0.291-0.171,0.71,0.12,0.935c0.959,0.74,1.934,1.005,2.817,1.005c0.029,0,0.058-0.001,0.087-0.002  C50.029,31.071,50.058,31.073,50.087,31.073z M47.874,24.966c0.184,0,0.367-0.076,0.498-0.224c0.244-0.275,0.22-0.696-0.056-0.941  c-2.608-2.317-5.321-1.003-6.392,0.015c-0.267,0.254-0.277,0.675-0.023,0.942c0.253,0.266,0.674,0.277,0.94,0.025  c0.231-0.215,2.296-2.024,4.59,0.014C47.559,24.911,47.717,24.966,47.874,24.966z M31.753,68.209  c2.592,8.79,9.773,15.127,18.203,15.127c0.006,0,0.012,0,0.018,0v-0.001c0.009,0,0.017,0,0.026,0.001  c0.009,0,0.017-0.001,0.026-0.001v0.001c0.006,0,0.012,0,0.018,0c8.431,0,15.611-6.337,18.203-15.127  c-4.932,1.874-11.189,3.495-18.077,3.495c-0.057,0-0.113-0.002-0.17-0.002c-0.057,0.001-0.113,0.002-0.17,0.002  C42.942,71.704,36.686,70.083,31.753,68.209z"/><text x="0" y="115" fill="#000000" font-size="5px" font-weight="bold" font-family="'Helvetica Neue', Helvetica, Arial-Unicode, Arial, Sans-serif">Created by George Z / Artzgeo</text><text x="0" y="120" fill="#000000" font-size="5px" font-weight="bold" font-family="'Helvetica Neue', Helvetica, Arial-Unicode, Arial, Sans-serif">from the Noun Project</text></svg>